# xmcd
#
# Track frame offsets: 
#        150
#        10682
#        23148
#        32202
#        43901
#        52704
#        63276
#        74400
#        84268
#        96818
#        106511
#        116909
#        129257
#        140068
#        152558
#
# Disc length: 2200 seconds
#
# Revision: 5
# Processed by: cddbd v1.5.2PL0 Copyright (c) Steve Scherf et al.
# Submitted via: ExactAudioCopy v0.99pb5
#
DISCID=ba08960f
DTITLE=Various Artist - Classic Country - TL 626-19 - 1950 - 1956 - CD 2
DYEAR=2001
DGENRE=Country
TTITLE0=Johnny Cash And The Tennessee Two - There you go
TTITLE1=Sanford Clark - The fool
TTITLE2=Johnny Horton - I'm a one - woman man
TTITLE3=Rusty Draper - Gamblers guitar
TTITLE4=Johnnie And Jack - Oh, baby mine
TTITLE5=Faron Young - Live fast, love hard, die young
TTITLE6=Ray Price - I'll be there (if you ever want me)
TTITLE7=Hank Thompson - New green light
TTITLE8=Hank Snow - Yellow roses
TTITLE9=Louvin Brothers - I don't believe you've met my baby
TTITLE10=Lefty Frizzell - Give me more, more, more (of your kisses)
TTITLE11=Browns - I take the chance
TTITLE12=Carl Smith - (When you feel like you're in love) don't just s
TTITLE12=tand there
TTITLE13=Eddy Arnold - Cattle call
TTITLE14=Faron Young - Sweet dreams
EXTD=
EXTT0=
EXTT1=
EXTT2=
EXTT3=
EXTT4=
EXTT5=
EXTT6=
EXTT7=
EXTT8=
EXTT9=
EXTT10=
EXTT11=
EXTT12=
EXTT13=
EXTT14=
PLAYORDER=
